<svg width="19" height="19" viewBox="0 0 19 19" fill="none" xmlns="http://www.w3.org/2000/svg">
<path d="M6.42531 8.43007L4.93935 9.91602C4.38439 10.471 4.06525 11.2261 4.07108 12.0197C4.07691 12.8133 4.38907 13.573 4.97037 14.1363C5.53368 14.7177 6.29356 15.0298 7.08703 15.0356C7.89859 15.0416 8.63583 14.7404 9.19083 14.1855L10.6768 12.6995M12.5748 10.8378L14.0608 9.35184C14.6157 8.79688 14.9349 8.04177 14.929 7.24817C14.9232 6.45457 14.611 5.69485 14.0297 5.13151C13.4666 4.56833 12.7068 4.25616 11.9132 4.25032C11.1196 4.24449 10.3644 4.54552 9.80942 5.10049L8.32346 6.58645M7.2467 11.8475L11.7046 7.38969" stroke="white" stroke-linecap="round" stroke-linejoin="round"/>
</svg>
