<svg width="93" height="109" viewBox="0 0 93 109" fill="none" xmlns="http://www.w3.org/2000/svg">
<rect x="37.3689" y="3.53174" width="17.0065" height="17.6616" rx="1.88816" fill="#A2D38C"/>
<circle cx="46.5" cy="62.4155" r="45.7251" fill="url(#paint0_radial_266_2370)"/>
<circle cx="46.5" cy="62.4155" r="45.7251" fill="white" fill-opacity="0.42"/>
<g style="mix-blend-mode:overlay">
<path d="M44.1525 59.8965L63.4619 46.5493C64.0488 46.1435 64.7397 46.8955 64.2858 47.4461L49.354 65.558C47.8492 67.3833 45.0754 67.4493 43.4855 65.6976C41.9083 63.9599 42.2221 61.2309 44.1525 59.8965Z" fill="black"/>
</g>
<rect x="28.7878" y="0.126465" width="34.1684" height="11.6996" rx="1.88816" fill="#D1F499"/>
<g style="mix-blend-mode:overlay" opacity="0.46">
<circle cx="46.4996" cy="62.4156" r="39.3658" stroke="black" stroke-width="1.39102"/>
<path d="M45.6753 23.7354V30.4373" stroke="black" stroke-width="1.39102" stroke-linecap="round"/>
<path d="M85.6038 62.7324L78.9018 62.7324" stroke="black" stroke-width="1.39102" stroke-linecap="round"/>
<path d="M14.3071 62.7324L7.60515 62.7324" stroke="black" stroke-width="1.39102" stroke-linecap="round"/>
<path d="M45.6753 95.0317V101.734" stroke="black" stroke-width="1.39102" stroke-linecap="round"/>
<path d="M73.5271 34.7446L68.7881 39.4836" stroke="black" stroke-width="1.39102" stroke-linecap="round"/>
<path d="M23.113 85.1592L18.374 89.8982" stroke="black" stroke-width="1.39102" stroke-linecap="round"/>
<path d="M73.4556 90.5625L68.7166 85.8235" stroke="black" stroke-width="1.39102" stroke-linecap="round"/>
<path d="M23.0413 40.1504L18.3022 35.4114" stroke="black" stroke-width="1.39102" stroke-linecap="round"/>
</g>
<defs>
<radialGradient id="paint0_radial_266_2370" cx="0" cy="0" r="1" gradientUnits="userSpaceOnUse" gradientTransform="translate(91.9964 -19.0287) rotate(118.56) scale(165.897)">
<stop offset="0.20677" stop-color="#C0FE39"/>
<stop offset="0.906485" stop-color="#3E74E0"/>
</radialGradient>
</defs>
</svg>
